<svg xmlns="http://www.w3.org/2000/svg" xmlns:xlink="http://www.w3.org/1999/xlink" zoomAndPan="magnify" preserveAspectRatio="xMidYMid meet" version="1.2" viewBox="90.8 131.79 219.32 102.57"><defs/><g id="ea3611ac63"><g style="fill:#ff751f;fill-opacity:1;"><g transform="translate(85.907946, 226.449242)"><path style="stroke:none" d="M 4.890625 -42.78125 C 4.890625 -49.0625 6.03125 -54.910156 8.3125 -60.328125 C 10.59375 -65.742188 13.789062 -70.46875 17.90625 -74.5 C 22.019531 -78.539062 26.804688 -81.703125 32.265625 -83.984375 C 37.734375 -86.265625 43.6875 -87.40625 50.125 -87.40625 C 55.90625 -87.40625 60.957031 -86.734375 65.28125 -85.390625 C 69.601562 -84.046875 73.171875 -82.476562 75.984375 -80.6875 C 78.796875 -78.894531 80.894531 -77.328125 82.28125 -75.984375 C 83.664062 -74.640625 84.359375 -73.96875 84.359375 -73.96875 L 69.6875 -50.734375 C 69.6875 -50.734375 68.953125 -51.300781 67.484375 -52.4375 C 66.015625 -53.582031 64.078125 -54.703125 61.671875 -55.796875 C 59.265625 -56.898438 56.640625 -57.453125 53.796875 -57.453125 C 49.554688 -57.453125 46.050781 -56.085938 43.28125 -53.359375 C 40.507812 -50.628906 39.125 -47.101562 39.125 -42.78125 C 39.125 -38.550781 40.507812 -35.050781 43.28125 -32.28125 C 46.050781 -29.507812 49.554688 -28.125 53.796875 -28.125 C 56.640625 -28.125 59.265625 -28.691406 61.671875 -29.828125 C 64.078125 -30.972656 66.015625 -32.09375 67.484375 -33.1875 C 68.953125 -34.289062 69.6875 -34.84375 69.6875 -34.84375 L 84.359375 -11.609375 C 84.359375 -11.609375 83.664062 -10.9375 82.28125 -9.59375 C 80.894531 -8.25 78.796875 -6.679688 75.984375 -4.890625 C 73.171875 -3.097656 69.601562 -1.53125 65.28125 -0.1875 C 60.957031 1.15625 55.90625 1.828125 50.125 1.828125 C 43.6875 1.828125 37.734375 0.6875 32.265625 -1.59375 C 26.804688 -3.875 22.019531 -7.03125 17.90625 -11.0625 C 13.789062 -15.09375 10.59375 -19.816406 8.3125 -25.234375 C 6.03125 -30.660156 4.890625 -36.507812 4.890625 -42.78125 Z M 4.890625 -42.78125 "/></g></g><g style="fill:#fff9f9;fill-opacity:1;"><g transform="translate(166.145399, 204.547611)"><path style="stroke:none" d="M 4.449219 -50.503906 L 29.144531 -50.503906 L 29.144531 3.335938 L 1.113281 3.335938 L 1.113281 -50.503906 Z M 4.449219 -43.828125 L 4.449219 -47.167969 L 7.789062 -47.167969 L 7.789062 0 L 4.449219 0 L 4.449219 -3.335938 L 25.808594 -3.335938 L 25.808594 0 L 22.472656 0 L 22.472656 -47.167969 L 25.808594 -47.167969 L 25.808594 -43.828125 Z M 1.113281 -52.507812 L 1.113281 -72.753906 L 29.144531 -72.753906 L 29.144531 -49.167969 L 1.113281 -49.167969 Z M 7.789062 -52.507812 L 4.449219 -52.507812 L 4.449219 -55.84375 L 25.808594 -55.84375 L 25.808594 -52.507812 L 22.472656 -52.507812 L 22.472656 -69.417969 L 25.808594 -69.417969 L 25.808594 -66.078125 L 4.449219 -66.078125 L 4.449219 -69.417969 L 7.789062 -69.417969 Z M 7.789062 -52.507812 "/></g></g><g style="fill:#ff751f;fill-opacity:1;"><g transform="translate(166.145399, 204.547611)"><path style="stroke:none" d="M 4.453125 -47.171875 L 25.8125 -47.171875 L 25.8125 0 L 4.453125 0 Z M 4.453125 -52.515625 L 4.453125 -69.421875 L 25.8125 -69.421875 L 25.8125 -52.515625 Z M 4.453125 -52.515625 "/></g></g><g style="fill:#fff9f9;fill-opacity:1;"><g transform="translate(188.20984, 231.025972)"><path style="stroke:none" d="M 22.695312 3.335938 L -2.535156 3.335938 L -2.535156 -25.628906 C -2.535156 -30.492188 -1.714844 -34.773438 -0.0664062 -38.46875 C 1.585938 -42.175781 3.824219 -45.273438 6.652344 -47.761719 C 9.4375 -50.210938 12.566406 -52.042969 16.03125 -53.253906 C 19.441406 -54.449219 22.9375 -55.042969 26.519531 -55.042969 C 30.097656 -55.042969 33.605469 -54.449219 37.046875 -53.257812 C 40.550781 -52.042969 43.683594 -50.207031 46.449219 -47.746094 C 49.238281 -45.261719 51.460938 -42.171875 53.109375 -38.46875 C 54.753906 -34.773438 55.578125 -30.492188 55.578125 -25.628906 L 55.578125 3.335938 L 27.011719 3.335938 L 27.011719 -25.628906 C 27.011719 -25.988281 26.964844 -26.210938 26.878906 -26.296875 C 26.75 -26.414062 26.632812 -26.476562 26.519531 -26.476562 C 26.441406 -26.476562 26.324219 -26.402344 26.164062 -26.253906 C 26.074219 -26.171875 26.03125 -25.964844 26.03125 -25.628906 L 26.03125 3.335938 Z M 22.695312 -3.335938 L 22.695312 0 L 19.355469 0 L 19.355469 -25.628906 C 19.355469 -27.90625 20.113281 -29.746094 21.628906 -31.148438 C 23.066406 -32.484375 24.699219 -33.152344 26.519531 -33.152344 C 28.425781 -33.152344 30.085938 -32.46875 31.503906 -31.105469 C 32.957031 -29.707031 33.683594 -27.882812 33.683594 -25.628906 L 33.683594 0 L 30.347656 0 L 30.347656 -3.335938 L 52.238281 -3.335938 L 52.238281 0 L 48.902344 0 L 48.902344 -25.628906 C 48.902344 -29.546875 48.273438 -32.921875 47.011719 -35.753906 C 45.753906 -38.578125 44.085938 -40.914062 42.011719 -42.761719 C 39.910156 -44.632812 37.527344 -46.027344 34.863281 -46.949219 C 32.128906 -47.894531 29.351562 -48.367188 26.519531 -48.367188 C 23.695312 -48.367188 20.933594 -47.898438 18.234375 -46.953125 C 15.585938 -46.027344 13.195312 -44.625 11.058594 -42.746094 C 8.960938 -40.902344 7.285156 -38.570312 6.03125 -35.753906 C 4.769531 -32.921875 4.136719 -29.546875 4.136719 -25.628906 L 4.136719 0 L 0.800781 0 L 0.800781 -3.335938 Z M 22.695312 -3.335938 "/></g></g><g style="fill:#ff751f;fill-opacity:1;"><g transform="translate(188.20984, 231.025972)"><path style="stroke:none" d="M 22.6875 0 L 0.796875 0 L 0.796875 -25.625 C 0.796875 -30.019531 1.519531 -33.847656 2.96875 -37.109375 C 4.425781 -40.378906 6.382812 -43.09375 8.84375 -45.25 C 11.3125 -47.414062 14.070312 -49.03125 17.125 -50.09375 C 20.1875 -51.164062 23.316406 -51.703125 26.515625 -51.703125 C 29.722656 -51.703125 32.867188 -51.164062 35.953125 -50.09375 C 39.035156 -49.03125 41.789062 -47.414062 44.21875 -45.25 C 46.65625 -43.09375 48.601562 -40.378906 50.0625 -37.109375 C 51.519531 -33.847656 52.25 -30.019531 52.25 -25.625 L 52.25 0 L 30.34375 0 L 30.34375 -25.625 C 30.34375 -26.9375 29.957031 -27.960938 29.1875 -28.703125 C 28.414062 -29.441406 27.523438 -29.8125 26.515625 -29.8125 C 25.566406 -29.8125 24.691406 -29.441406 23.890625 -28.703125 C 23.085938 -27.960938 22.6875 -26.9375 22.6875 -25.625 Z M 22.6875 0 "/></g></g><g style="fill:#ff751f;fill-opacity:1;"><g transform="translate(242.010617, 229.525972)"><path style="stroke:none" d="M 27.59375 -48.5 C 31.03125 -48.5 34.257812 -47.859375 37.28125 -46.578125 C 40.3125 -45.304688 42.96875 -43.53125 45.25 -41.25 C 47.539062 -38.96875 49.320312 -36.3125 50.59375 -33.28125 C 51.875 -30.257812 52.515625 -27.023438 52.515625 -23.578125 C 52.515625 -23.460938 52.515625 -23.0625 52.515625 -22.375 C 52.515625 -21.695312 52.515625 -21.015625 52.515625 -20.328125 C 52.515625 -19.648438 52.515625 -19.253906 52.515625 -19.140625 L 24.03125 -19.140625 C 24.03125 -19.140625 24.207031 -18.738281 24.5625 -17.9375 C 24.914062 -17.132812 25.65625 -16.316406 26.78125 -15.484375 C 27.914062 -14.648438 29.671875 -14.234375 32.046875 -14.234375 C 33.523438 -14.234375 34.867188 -14.53125 36.078125 -15.125 C 37.296875 -15.71875 38.257812 -16.3125 38.96875 -16.90625 C 39.6875 -17.5 40.046875 -17.796875 40.046875 -17.796875 L 47.609375 -5.78125 C 47.609375 -5.78125 47.191406 -5.425781 46.359375 -4.71875 C 45.535156 -4.007812 44.335938 -3.175781 42.765625 -2.21875 C 41.191406 -1.269531 39.25 -0.441406 36.9375 0.265625 C 34.625 0.972656 31.953125 1.328125 28.921875 1.328125 C 23.878906 1.328125 19.382812 0.21875 15.4375 -2 C 11.488281 -4.226562 8.375 -7.238281 6.09375 -11.03125 C 3.8125 -14.832031 2.671875 -19.015625 2.671875 -23.578125 C 2.671875 -27.023438 3.304688 -30.257812 4.578125 -33.28125 C 5.859375 -36.3125 7.640625 -38.96875 9.921875 -41.25 C 12.203125 -43.53125 14.851562 -45.304688 17.875 -46.578125 C 20.90625 -47.859375 24.144531 -48.5 27.59375 -48.5 Z M 23.578125 -27.59375 L 31.59375 -27.59375 C 31.59375 -29.375 31.207031 -30.707031 30.4375 -31.59375 C 29.664062 -32.488281 28.71875 -32.9375 27.59375 -32.9375 C 26.46875 -32.9375 25.515625 -32.488281 24.734375 -31.59375 C 23.960938 -30.707031 23.578125 -29.375 23.578125 -27.59375 Z M 23.578125 -27.59375 "/></g></g><g style="fill:#ff751f;fill-opacity:1;"><g transform="translate(249.084378, 179.88466)"><path style="stroke:none" d="M 6.234375 -2.109375 C 5.273438 -1.742188 4.382812 -1.585938 3.5625 -1.640625 C 2.75 -1.703125 2.007812 -1.925781 1.34375 -2.3125 C 0.675781 -2.695312 0.0976562 -3.203125 -0.390625 -3.828125 C -0.878906 -4.453125 -1.269531 -5.15625 -1.5625 -5.9375 C -1.851562 -6.71875 -2.019531 -7.503906 -2.0625 -8.296875 C -2.101562 -9.085938 -2 -9.847656 -1.75 -10.578125 C -1.5 -11.304688 -1.082031 -11.957031 -0.5 -12.53125 C 0.0703125 -13.113281 0.835938 -13.585938 1.796875 -13.953125 C 3.273438 -14.503906 4.582031 -14.59375 5.71875 -14.21875 C 6.851562 -13.851562 7.75 -13.148438 8.40625 -12.109375 L 6.03125 -11.21875 C 5.625 -11.726562 5.125 -12.0625 4.53125 -12.21875 C 3.9375 -12.375 3.257812 -12.304688 2.5 -12.015625 C 1.769531 -11.742188 1.222656 -11.335938 0.859375 -10.796875 C 0.503906 -10.265625 0.316406 -9.648438 0.296875 -8.953125 C 0.285156 -8.265625 0.421875 -7.546875 0.703125 -6.796875 C 0.984375 -6.023438 1.363281 -5.382812 1.84375 -4.875 C 2.332031 -4.375 2.898438 -4.046875 3.546875 -3.890625 C 4.203125 -3.742188 4.921875 -3.816406 5.703125 -4.109375 C 6.597656 -4.441406 7.222656 -4.929688 7.578125 -5.578125 C 7.941406 -6.234375 7.96875 -7.015625 7.65625 -7.921875 L 5.125 -6.96875 L 4.453125 -8.75 L 9.109375 -10.5 L 11.4375 -4.28125 L 9.484375 -3.546875 L 9 -4.828125 C 8.800781 -4.117188 8.441406 -3.539062 7.921875 -3.09375 C 7.398438 -2.65625 6.835938 -2.328125 6.234375 -2.109375 Z M 6.234375 -2.109375 "/></g></g><g style="fill:#ff751f;fill-opacity:1;"><g transform="translate(263.366882, 175.102992)"><path style="stroke:none" d="M 5.875 0.46875 C 4.707031 0.414062 3.769531 0.179688 3.0625 -0.234375 C 2.363281 -0.648438 1.859375 -1.21875 1.546875 -1.9375 C 1.234375 -2.65625 1.097656 -3.472656 1.140625 -4.390625 L 1.46875 -12.140625 L 3.796875 -12.046875 L 3.46875 -4.296875 C 3.445312 -3.796875 3.507812 -3.34375 3.65625 -2.9375 C 3.800781 -2.539062 4.054688 -2.222656 4.421875 -1.984375 C 4.796875 -1.753906 5.3125 -1.625 5.96875 -1.59375 C 6.625 -1.5625 7.144531 -1.644531 7.53125 -1.84375 C 7.925781 -2.050781 8.210938 -2.347656 8.390625 -2.734375 C 8.566406 -3.128906 8.664062 -3.578125 8.6875 -4.078125 L 9.015625 -11.828125 L 11.3125 -11.734375 L 10.984375 -3.984375 C 10.941406 -3.066406 10.738281 -2.257812 10.375 -1.5625 C 10.019531 -0.875 9.46875 -0.351562 8.71875 0 C 7.976562 0.363281 7.03125 0.519531 5.875 0.46875 Z M 5.875 0.46875 "/></g></g><g style="fill:#ff751f;fill-opacity:1;"><g transform="translate(277.414149, 176.575975)"><path style="stroke:none" d="M 3.203125 1.125 L 1.03125 0.359375 L 5.046875 -11.15625 L 7.21875 -10.390625 Z M 3.203125 1.125 "/></g></g><g style="fill:#ff751f;fill-opacity:1;"><g transform="translate(284.028016, 178.710387)"><path style="stroke:none" d="M 3.75 2.71875 L 0.890625 0.640625 L 8.0625 -9.234375 L 10.921875 -7.15625 C 12.597656 -5.9375 13.566406 -4.578125 13.828125 -3.078125 C 14.097656 -1.585938 13.65625 -0.046875 12.5 1.546875 C 11.351562 3.128906 10.023438 4.023438 8.515625 4.234375 C 7.015625 4.441406 5.425781 3.9375 3.75 2.71875 Z M 8.703125 -6.21875 L 3.96875 0.3125 L 4.953125 1.03125 C 5.609375 1.507812 6.257812 1.828125 6.90625 1.984375 C 7.550781 2.148438 8.1875 2.09375 8.8125 1.8125 C 9.445312 1.539062 10.054688 1 10.640625 0.1875 C 11.191406 -0.570312 11.503906 -1.289062 11.578125 -1.96875 C 11.648438 -2.65625 11.519531 -3.289062 11.1875 -3.875 C 10.863281 -4.46875 10.367188 -5.003906 9.703125 -5.484375 Z M 8.703125 -6.21875 "/></g></g><g style="fill:#ff751f;fill-opacity:1;"><g transform="translate(294.837528, 187.215358)"><path style="stroke:none" d="M 5.09375 7.703125 L 0.609375 0.90625 L 10.796875 -5.8125 L 15.28125 0.984375 L 13.5625 2.109375 L 10.34375 -2.765625 L 7.828125 -1.109375 L 10.703125 3.265625 L 9 4.390625 L 6.125 0.015625 L 3.59375 1.6875 L 6.8125 6.5625 Z M 5.09375 7.703125 "/></g></g></g></svg>